<mxfile host="app.diagrams.net" modified="2023-07-23T12:34:44.345Z" agent="Mozilla/5.0 (Windows NT 10.0; Win64; x64; rv:109.0) Gecko/20100101 Firefox/115.0" etag="57NL09ExtGlVmoQClAjx" version="21.6.5" type="github">
  <diagram name="第 1 页" id="dKMyycL-12GpZW0KiaHM">
    <mxGraphModel dx="2074" dy="1114" grid="1" gridSize="10" guides="1" tooltips="1" connect="1" arrows="1" fold="1" page="1" pageScale="1" pageWidth="1169" pageHeight="827" math="0" shadow="0">
      <root>
        <mxCell id="0" />
        <mxCell id="1" parent="0" />
        <mxCell id="JYIvmN7N8jLB81RJcOlE-1" value="应用系统" style="rounded=0;whiteSpace=wrap;html=1;dashed=1;fillColor=none;strokeColor=#6c8ebf;fontSize=17;" parent="1" vertex="1">
          <mxGeometry x="160" y="44" width="880" height="60" as="geometry" />
        </mxCell>
        <mxCell id="JYIvmN7N8jLB81RJcOlE-2" value="" style="rounded=0;whiteSpace=wrap;html=1;fillColor=none;strokeColor=#6c8ebf;" parent="1" vertex="1">
          <mxGeometry x="160" y="134" width="880" height="526" as="geometry" />
        </mxCell>
        <mxCell id="JYIvmN7N8jLB81RJcOlE-3" value="统一接入服务平台" style="rounded=0;whiteSpace=wrap;html=1;fillColor=none;strokeColor=#82b366;fontSize=17;verticalAlign=top;" parent="1" vertex="1">
          <mxGeometry x="780" y="164" width="220" height="476" as="geometry" />
        </mxCell>
        <mxCell id="JYIvmN7N8jLB81RJcOlE-4" value="代理访问" style="rounded=0;whiteSpace=wrap;html=1;fillColor=none;strokeColor=#d79b00;fontSize=17;verticalAlign=top;" parent="1" vertex="1">
          <mxGeometry x="200" y="164" width="480" height="100" as="geometry" />
        </mxCell>
        <mxCell id="JYIvmN7N8jLB81RJcOlE-5" value="处理引擎" style="rounded=0;whiteSpace=wrap;html=1;fillColor=none;strokeColor=#d79b00;fontSize=17;verticalAlign=top;" parent="1" vertex="1">
          <mxGeometry x="200" y="299" width="480" height="146" as="geometry" />
        </mxCell>
        <mxCell id="JYIvmN7N8jLB81RJcOlE-6" value="数据驱动" style="rounded=0;whiteSpace=wrap;html=1;fillColor=none;strokeColor=#d79b00;fontSize=17;verticalAlign=top;" parent="1" vertex="1">
          <mxGeometry x="200" y="485" width="480" height="155" as="geometry" />
        </mxCell>
        <mxCell id="JYIvmN7N8jLB81RJcOlE-7" value="数据存储" style="rounded=0;whiteSpace=wrap;html=1;dashed=1;fillColor=none;strokeColor=#6c8ebf;fontSize=17;verticalAlign=top;align=left;" parent="1" vertex="1">
          <mxGeometry x="160" y="680" width="880" height="90" as="geometry" />
        </mxCell>
        <mxCell id="JYIvmN7N8jLB81RJcOlE-8" value="" style="image;aspect=fixed;perimeter=ellipsePerimeter;html=1;align=center;shadow=0;dashed=0;spacingTop=3;image=img/lib/active_directory/databases.svg;" parent="1" vertex="1">
          <mxGeometry x="333" y="695" width="60.2" height="59" as="geometry" />
        </mxCell>
        <mxCell id="JYIvmN7N8jLB81RJcOlE-9" value="" style="sketch=0;outlineConnect=0;fontColor=#232F3E;gradientColor=none;fillColor=#2E27AD;strokeColor=none;dashed=0;verticalLabelPosition=bottom;verticalAlign=top;align=center;html=1;fontSize=12;fontStyle=0;aspect=fixed;pointerEvents=1;shape=mxgraph.aws4.cache_node;" parent="1" vertex="1">
          <mxGeometry x="567" y="695" width="60" height="60" as="geometry" />
        </mxCell>
        <mxCell id="JYIvmN7N8jLB81RJcOlE-11" value="" style="verticalLabelPosition=bottom;html=1;verticalAlign=top;align=center;strokeColor=none;fillColor=#00BEF2;shape=mxgraph.azure.storage_queue;" parent="1" vertex="1">
          <mxGeometry x="820" y="699" width="60" height="55" as="geometry" />
        </mxCell>
        <mxCell id="JYIvmN7N8jLB81RJcOlE-12" value="统一访问服务" style="rounded=1;whiteSpace=wrap;html=1;fontSize=14;fillColor=#dae8fc;strokeColor=none;" parent="1" vertex="1">
          <mxGeometry x="240" y="204" width="400" height="40" as="geometry" />
        </mxCell>
        <mxCell id="JYIvmN7N8jLB81RJcOlE-13" value="&lt;div&gt;结果集处理&lt;/div&gt;" style="rounded=1;whiteSpace=wrap;html=1;fontSize=14;fillColor=#dae8fc;strokeColor=none;" parent="1" vertex="1">
          <mxGeometry x="240" y="329" width="190" height="40" as="geometry" />
        </mxCell>
        <mxCell id="JYIvmN7N8jLB81RJcOlE-14" value="数据路由" style="rounded=1;whiteSpace=wrap;html=1;fontSize=14;fillColor=#dae8fc;strokeColor=none;" parent="1" vertex="1">
          <mxGeometry x="240" y="383" width="190" height="40" as="geometry" />
        </mxCell>
        <mxCell id="JYIvmN7N8jLB81RJcOlE-15" value="备份管理" style="rounded=1;whiteSpace=wrap;html=1;fontSize=14;fillColor=#dae8fc;strokeColor=none;" parent="1" vertex="1">
          <mxGeometry x="450" y="329" width="190" height="40" as="geometry" />
        </mxCell>
        <mxCell id="JYIvmN7N8jLB81RJcOlE-16" value="数据分片" style="rounded=1;whiteSpace=wrap;html=1;fontSize=14;fillColor=#dae8fc;strokeColor=none;" parent="1" vertex="1">
          <mxGeometry x="450" y="383" width="190" height="40" as="geometry" />
        </mxCell>
        <mxCell id="JYIvmN7N8jLB81RJcOlE-17" value="数据连接池" style="rounded=1;whiteSpace=wrap;html=1;fontSize=14;fillColor=#dae8fc;strokeColor=none;" parent="1" vertex="1">
          <mxGeometry x="240" y="515" width="190" height="40" as="geometry" />
        </mxCell>
        <mxCell id="JYIvmN7N8jLB81RJcOlE-18" value="故障切换" style="rounded=1;whiteSpace=wrap;html=1;fontSize=14;fillColor=#dae8fc;strokeColor=none;" parent="1" vertex="1">
          <mxGeometry x="240" y="569" width="190" height="40" as="geometry" />
        </mxCell>
        <mxCell id="JYIvmN7N8jLB81RJcOlE-19" value="故障备份" style="rounded=1;whiteSpace=wrap;html=1;fontSize=14;fillColor=#dae8fc;strokeColor=none;" parent="1" vertex="1">
          <mxGeometry x="450" y="515" width="190" height="40" as="geometry" />
        </mxCell>
        <mxCell id="JYIvmN7N8jLB81RJcOlE-20" value="ORM适配" style="rounded=1;whiteSpace=wrap;html=1;fontSize=14;fillColor=#dae8fc;strokeColor=none;" parent="1" vertex="1">
          <mxGeometry x="450" y="569" width="190" height="40" as="geometry" />
        </mxCell>
        <mxCell id="JYIvmN7N8jLB81RJcOlE-21" value="会员管理" style="rounded=1;whiteSpace=wrap;html=1;fontSize=14;fillColor=#dae8fc;strokeColor=none;" parent="1" vertex="1">
          <mxGeometry x="795" y="204" width="190" height="30" as="geometry" />
        </mxCell>
        <mxCell id="JYIvmN7N8jLB81RJcOlE-22" value="企业管理" style="rounded=1;whiteSpace=wrap;html=1;fontSize=14;fillColor=#dae8fc;strokeColor=none;" parent="1" vertex="1">
          <mxGeometry x="795" y="244" width="190" height="30" as="geometry" />
        </mxCell>
        <mxCell id="JYIvmN7N8jLB81RJcOlE-23" value="项目管理" style="rounded=1;whiteSpace=wrap;html=1;fontSize=14;fillColor=#dae8fc;strokeColor=none;" parent="1" vertex="1">
          <mxGeometry x="795" y="284" width="190" height="30" as="geometry" />
        </mxCell>
        <mxCell id="JYIvmN7N8jLB81RJcOlE-24" value="打款管理" style="rounded=1;whiteSpace=wrap;html=1;fontSize=14;fillColor=#dae8fc;strokeColor=none;" parent="1" vertex="1">
          <mxGeometry x="795" y="324" width="190" height="30" as="geometry" />
        </mxCell>
        <mxCell id="JYIvmN7N8jLB81RJcOlE-25" value="发票管理" style="rounded=1;whiteSpace=wrap;html=1;fontSize=14;fillColor=#dae8fc;strokeColor=none;" parent="1" vertex="1">
          <mxGeometry x="795" y="364" width="190" height="30" as="geometry" />
        </mxCell>
        <mxCell id="JYIvmN7N8jLB81RJcOlE-26" value="税务管理" style="rounded=1;whiteSpace=wrap;html=1;fontSize=14;fillColor=#dae8fc;strokeColor=none;" parent="1" vertex="1">
          <mxGeometry x="795" y="405" width="190" height="30" as="geometry" />
        </mxCell>
        <mxCell id="JYIvmN7N8jLB81RJcOlE-27" value="签约管理" style="rounded=1;whiteSpace=wrap;html=1;fontSize=14;fillColor=#dae8fc;strokeColor=none;" parent="1" vertex="1">
          <mxGeometry x="795" y="445" width="190" height="30" as="geometry" />
        </mxCell>
        <mxCell id="JYIvmN7N8jLB81RJcOlE-28" value="协议管理" style="rounded=1;whiteSpace=wrap;html=1;fontSize=14;fillColor=#dae8fc;strokeColor=none;" parent="1" vertex="1">
          <mxGeometry x="795" y="485" width="190" height="30" as="geometry" />
        </mxCell>
        <mxCell id="JYIvmN7N8jLB81RJcOlE-29" value="权限管理" style="rounded=1;whiteSpace=wrap;html=1;fontSize=14;fillColor=#dae8fc;strokeColor=none;" parent="1" vertex="1">
          <mxGeometry x="795" y="525" width="190" height="30" as="geometry" />
        </mxCell>
        <mxCell id="JYIvmN7N8jLB81RJcOlE-30" value="资讯管理" style="rounded=1;whiteSpace=wrap;html=1;fontSize=14;fillColor=#dae8fc;strokeColor=none;" parent="1" vertex="1">
          <mxGeometry x="795" y="565" width="190" height="30" as="geometry" />
        </mxCell>
        <mxCell id="JYIvmN7N8jLB81RJcOlE-31" value="风险管理" style="rounded=1;whiteSpace=wrap;html=1;fontSize=14;fillColor=#dae8fc;strokeColor=none;" parent="1" vertex="1">
          <mxGeometry x="795" y="605" width="190" height="30" as="geometry" />
        </mxCell>
        <mxCell id="JYIvmN7N8jLB81RJcOlE-32" value="" style="shape=flexArrow;endArrow=classic;html=1;rounded=0;fillColor=#b1ddf0;strokeColor=#10739e;width=20;" parent="1" edge="1">
          <mxGeometry width="50" height="50" relative="1" as="geometry">
            <mxPoint x="439.5" y="99" as="sourcePoint" />
            <mxPoint x="439.5" y="139" as="targetPoint" />
          </mxGeometry>
        </mxCell>
        <mxCell id="JYIvmN7N8jLB81RJcOlE-33" value="" style="shape=flexArrow;endArrow=classic;html=1;rounded=0;fillColor=#b1ddf0;strokeColor=#10739e;width=20;" parent="1" target="JYIvmN7N8jLB81RJcOlE-5" edge="1">
          <mxGeometry width="50" height="50" relative="1" as="geometry">
            <mxPoint x="790" y="368" as="sourcePoint" />
            <mxPoint x="750" y="368" as="targetPoint" />
          </mxGeometry>
        </mxCell>
        <mxCell id="JYIvmN7N8jLB81RJcOlE-34" value="" style="shape=flexArrow;endArrow=classic;html=1;rounded=0;fillColor=#b1ddf0;strokeColor=#10739e;width=20;" parent="1" edge="1">
          <mxGeometry width="50" height="50" relative="1" as="geometry">
            <mxPoint x="439.5" y="648" as="sourcePoint" />
            <mxPoint x="439.5" y="699" as="targetPoint" />
          </mxGeometry>
        </mxCell>
        <mxCell id="JYIvmN7N8jLB81RJcOlE-35" value="" style="shape=flexArrow;endArrow=classic;html=1;rounded=0;fillColor=#b1ddf0;strokeColor=#10739e;width=20;" parent="1" edge="1">
          <mxGeometry width="50" height="50" relative="1" as="geometry">
            <mxPoint x="439.5" y="439" as="sourcePoint" />
            <mxPoint x="439.5" y="490" as="targetPoint" />
          </mxGeometry>
        </mxCell>
        <mxCell id="JYIvmN7N8jLB81RJcOlE-36" value="" style="shape=flexArrow;endArrow=classic;html=1;rounded=0;fillColor=#b1ddf0;strokeColor=#10739e;width=20;" parent="1" edge="1">
          <mxGeometry width="50" height="50" relative="1" as="geometry">
            <mxPoint x="439.5" y="256" as="sourcePoint" />
            <mxPoint x="439.5" y="307" as="targetPoint" />
          </mxGeometry>
        </mxCell>
      </root>
    </mxGraphModel>
  </diagram>
</mxfile>
